<svg width="635" height="630" viewBox="0 0 635 630" fill="none" xmlns="http://www.w3.org/2000/svg">
<path d="M241.745 203.849H370.208C375.172 203.849 379.198 199.823 379.198 194.859C379.198 189.896 375.172 185.87 370.208 185.87H241.745C236.776 185.87 232.755 189.896 232.755 194.859C232.755 199.823 236.776 203.849 241.745 203.849Z" fill="#F05454"/>
<path d="M179.568 304.979H135.047C123.61 304.979 114.302 314.287 114.302 325.724V370.245C114.302 381.682 123.61 390.995 135.047 390.995H179.568C191.011 390.995 200.313 381.688 200.313 370.245V325.724C200.313 314.287 191.005 304.979 179.568 304.979ZM182.333 370.245C182.333 371.771 181.094 373.016 179.568 373.016H135.047C133.521 373.016 132.281 371.771 132.281 370.245V325.724C132.281 324.198 133.521 322.959 135.047 322.959H179.568C181.094 322.959 182.333 324.198 182.333 325.724V370.245Z" fill="#F05454"/>
<path d="M241.745 244.948H317.677C322.641 244.948 326.667 240.922 326.667 235.958C326.667 230.995 322.641 226.969 317.677 226.969H241.745C236.776 226.969 232.755 230.995 232.755 235.958C232.755 240.922 236.776 244.948 241.745 244.948Z" fill="#F05454"/>
<path d="M114.302 193.151V237.667C114.302 249.109 123.61 258.417 135.047 258.417H179.568C191.005 258.417 200.313 249.109 200.313 237.667V193.151C200.313 181.708 191.005 172.401 179.568 172.401H135.047C123.61 172.401 114.302 181.708 114.302 193.151ZM182.333 193.151V237.667C182.333 239.193 181.094 240.438 179.568 240.438H135.047C133.521 240.438 132.281 239.193 132.281 237.667V193.151C132.281 191.62 133.521 190.38 135.047 190.38H179.568C181.094 190.38 182.333 191.62 182.333 193.151Z" fill="#F05454"/>
<path d="M520.531 274.995C480.287 234.75 414.797 234.75 374.552 274.995C334.302 315.24 334.302 380.729 374.552 420.974C394.677 441.104 421.104 451.162 447.542 451.162C473.979 451.162 500.406 441.099 520.526 420.979C540.047 401.479 550.792 375.557 550.792 347.985C550.792 320.412 540.042 294.49 520.531 274.995ZM507.818 408.261C491.198 424.88 469.37 433.193 447.542 433.188C425.714 433.188 403.88 424.88 387.261 408.261C354.026 375.026 354.026 320.943 387.261 287.709C420.5 254.474 474.583 254.474 507.823 287.709C523.938 303.813 532.813 325.219 532.813 347.985C532.813 370.75 523.938 392.156 507.818 408.261Z" fill="#F05454"/>
<path d="M241.745 510.099H370.24C375.208 510.099 379.229 506.073 379.229 501.11C379.229 496.146 375.208 492.12 370.24 492.12H241.745C236.776 492.12 232.755 496.146 232.755 501.11C232.755 506.073 236.776 510.099 241.745 510.099Z" fill="#F05454"/>
<path d="M241.745 469H317.677C322.641 469 326.667 464.974 326.667 460.011C326.667 455.047 322.641 451.021 317.677 451.021H241.745C236.776 451.021 232.755 455.047 232.755 460.011C232.755 464.974 236.776 469 241.745 469Z" fill="#F05454"/>
<path d="M241.745 377.521H277.271C282.235 377.521 286.261 373.5 286.261 368.531C286.261 363.568 282.235 359.542 277.271 359.542H241.745C236.776 359.542 232.755 363.568 232.755 368.531C232.755 373.5 236.776 377.521 241.745 377.521Z" fill="#F05454"/>
<path d="M241.745 336.427H277.271C282.235 336.427 286.261 332.401 286.261 327.438C286.261 322.474 282.235 318.448 277.271 318.448H241.745C236.776 318.448 232.755 322.474 232.755 327.438C232.755 332.401 236.776 336.427 241.745 336.427Z" fill="#F05454"/>
<path d="M179.568 437.552H135.047C123.61 437.552 114.302 446.86 114.302 458.302V502.818C114.302 514.261 123.61 523.568 135.047 523.568H179.568C191.011 523.568 200.313 514.261 200.313 502.818V458.302C200.313 446.86 191.005 437.552 179.568 437.552ZM182.333 502.818C182.333 504.349 181.094 505.589 179.568 505.589H135.047C133.521 505.589 132.281 504.349 132.281 502.818V458.302C132.281 456.776 133.521 455.531 135.047 455.531H179.568C181.094 455.531 182.333 456.776 182.333 458.302V502.818Z" fill="#F05454"/>
<mask id="mask0_10_37" style="mask-type:luminance" maskUnits="userSpaceOnUse" x="0" y="0" width="635" height="630">
<path d="M0 0H634.438V629.443H0V0Z" fill="white"/>
</mask>
<g mask="url(#mask0_10_37)">
<path d="M587.547 438.328C583.635 434.417 578.339 432.688 573.188 433.135L564.281 424.208C580.865 398.849 588.766 368.552 586.609 338.052C584.245 304.609 569.865 273.125 546.125 249.401C532.661 235.938 517.099 225.818 500.484 219.026V96.6094C500.484 63.3698 473.443 36.3333 440.208 36.3333H349.865L345.714 20.0104C342.703 8.23958 332.516 0.328125 320.37 0.328125H180.115C168.156 0.328125 157.734 8.42188 154.771 20.0104C154.771 20.0156 154.766 20.0208 154.766 20.026L150.625 36.3333H60.276C27.0417 36.3333 0 63.3698 0 96.6094V568.891C0 602.13 27.0417 629.172 60.276 629.172H440.208C473.443 629.172 500.484 602.13 500.484 568.891V476.927C508.594 473.604 516.406 469.521 523.797 464.693L532.693 473.589C532.646 474.109 532.615 474.641 532.615 475.172C532.615 480.026 534.51 484.578 537.922 487.953L576.948 527.016C582.146 532.214 588.984 534.812 595.828 534.812C602.672 534.812 609.505 532.219 614.724 527.031C614.729 527.021 614.74 527.016 614.75 527.005L626.552 515.167C631.609 510.135 634.391 503.427 634.391 496.271C634.391 489.109 631.609 482.401 626.573 477.391L587.547 438.328ZM440.208 54.3073C463.531 54.3073 482.505 73.2865 482.505 96.6094V213.078C474.906 211.12 467.172 209.818 459.385 209.161V96.6146C459.385 86.0365 450.781 77.4323 440.203 77.4323H360.307L354.432 54.3125H440.208V54.3073ZM151.224 106.943L172.193 24.4583C173.141 20.776 176.323 18.3073 180.115 18.3073H320.37C324.229 18.3073 327.339 20.7292 328.297 24.4583L349.26 106.932C349.344 107.26 349.328 107.328 349.125 107.589C348.953 107.818 348.885 107.859 348.547 107.859H151.938C151.599 107.859 151.536 107.818 151.359 107.589C151.156 107.328 151.141 107.26 151.224 106.943ZM151.938 125.839H348.547C354.458 125.839 359.708 123.271 363.328 118.609C366.943 113.953 368.135 108.24 366.688 102.516L364.88 95.4062H440.208C440.87 95.4062 441.411 95.9479 441.411 96.6094V208.786C407.786 210.26 374.589 223.792 348.958 249.401C322.63 275.729 308.135 310.74 308.135 347.984C308.135 385.224 322.635 420.234 348.964 446.568C372.708 470.292 404.198 484.656 437.646 487.021C438.901 487.109 440.156 487.161 441.411 487.219V568.891C441.411 569.562 440.859 570.13 440.208 570.13H60.276C59.625 570.13 59.0729 569.562 59.0729 568.891V96.6094C59.0729 95.9479 59.6146 95.4062 60.276 95.4062H135.604L133.797 102.521C132.349 108.24 133.542 113.953 137.156 118.615C140.771 123.271 146.021 125.839 151.938 125.839ZM482.505 568.891C482.505 592.214 463.531 611.193 440.208 611.193H60.276C36.9531 611.193 17.9792 592.214 17.9792 568.891V96.6094C17.9792 73.2865 36.9531 54.3073 60.276 54.3073H146.052L140.177 77.4271H60.276C49.7031 77.4271 41.0938 86.0365 41.0938 96.6094V568.891C41.0938 579.49 49.7031 588.109 60.276 588.109H440.208C450.781 588.109 459.391 579.49 459.391 568.891V486.844C467.214 486.177 474.948 484.87 482.505 482.917V568.891ZM531.198 446.667C528.052 443.521 523.083 443.151 519.505 445.786C471.656 481.078 403.802 475.948 361.672 433.854C314.328 386.505 314.328 309.464 361.672 262.12C409.036 214.786 486.078 214.786 533.411 262.12C575.536 304.208 580.682 372.047 545.38 419.911C542.745 423.484 543.115 428.453 546.255 431.599L557.458 442.828L542.422 457.891L531.198 446.667ZM613.849 502.443L602.031 514.297C598.599 517.693 593.057 517.698 589.661 514.302L550.641 475.245C550.63 475.234 550.651 475.115 550.641 475.099L574.609 451.094C574.63 451.083 574.651 451.073 574.667 451.062C574.698 451.047 574.729 451.031 574.755 451.031C574.797 451.031 574.828 451.042 574.828 451.042L613.875 490.12C615.51 491.75 616.411 493.932 616.411 496.271C616.411 498.604 615.51 500.792 613.844 502.443H613.849Z" fill="#F05454"/>
</g>
</svg>
